<svg xmlns="http://www.w3.org/2000/svg" width="60" height="46.226" viewBox="0 0 60 46.226">
  <g id="Group_22" data-name="Group 22" transform="translate(-390.945 -281.414)">
    <g id="Group_21" data-name="Group 21">
      <path id="Path_24" data-name="Path 24" d="M450.219,303.562l-9.7-2.785a6.3,6.3,0,0,0-3.668.07,25.537,25.537,0,0,0,2.094-10.087,9.512,9.512,0,0,0-.112-1.459l-1.977.312a7.336,7.336,0,0,1,.089,1.147,23.48,23.48,0,0,1-2.445,10.408l-1.45,2.914a1.012,1.012,0,0,0-.1.339l-1.718,15.539a1.845,1.845,0,0,1-3.661.071L425.38,305.35a4.482,4.482,0,0,0-8.87,0l-2.191,14.681a1.845,1.845,0,0,1-3.661-.071l-1.719-15.543a1.023,1.023,0,0,0-.1-.338l-1.45-2.915a23.487,23.487,0,0,1-2.444-10.4,7.3,7.3,0,0,1,10.172-6.743,14.786,14.786,0,0,0,11.656,0l-.787-1.847a12.8,12.8,0,0,1-10.082,0,9.284,9.284,0,0,0-12.209,4.915,9.4,9.4,0,0,0-.75,3.675,25.521,25.521,0,0,0,2.1,10.087,6.3,6.3,0,0,0-3.669-.07l-9.7,2.785a1,1,0,0,0-.731.965v22.108a1,1,0,0,0,1,1.005h58a1,1,0,0,0,1-1.005V304.527A1,1,0,0,0,450.219,303.562Zm-1.274,22.068h-56V305.285l8.975-2.577a4.375,4.375,0,0,1,5.054,2.145l1.7,15.329a3.845,3.845,0,0,0,7.628.148l2.191-14.682a2.481,2.481,0,0,1,4.912,0L425.6,320.33a3.845,3.845,0,0,0,7.628-.148l1.7-15.329a4.376,4.376,0,0,1,5.054-2.145l8.967,2.577Z" fill="#fff"/>
    </g>
  </g>
</svg>
